# Blender v2.78 (sub 0) OBJ File: 'table.blend'
# www.blender.org
mtllib table.mtl
o Cube_Cube.004
v -3.519125 4.341564 5.254792
v -3.519125 4.693624 5.254792
v -3.519125 4.341564 -2.375062
v -3.519125 4.693624 -2.375062
v 9.484229 4.341564 5.254792
v 9.484229 4.693624 5.254792
v 9.484229 4.341564 -2.375062
v 9.484229 4.693624 -2.375062
vn -1.0000 0.0000 0.0000
vn 0.0000 0.0000 -1.0000
vn 1.0000 0.0000 0.0000
vn 0.0000 0.0000 1.0000
vn 0.0000 -1.0000 0.0000
vn 0.0000 1.0000 0.0000
usemtl Material
s off
f 1//1 2//1 4//1 3//1
f 3//2 4//2 8//2 7//2
f 7//3 8//3 6//3 5//3
f 5//4 6//4 2//4 1//4
f 3//5 7//5 5//5 1//5
f 8//6 4//6 2//6 6//6
o Cylinder.002
v -2.599496 -0.045657 4.493096
v -2.599496 4.654363 4.493096
v -2.624478 -0.045657 4.495937
v -2.624478 4.654363 4.495937
v -2.648499 -0.045657 4.504352
v -2.648499 4.654363 4.504352
v -2.670637 -0.045657 4.518015
v -2.670637 4.654363 4.518015
v -2.690042 -0.045657 4.536404
v -2.690042 4.654363 4.536404
v -2.705966 -0.045657 4.558810
v -2.705966 4.654363 4.558810
v -2.717800 -0.045657 4.584373
v -2.717800 4.654363 4.584373
v -2.725086 -0.045657 4.612111
v -2.725086 4.654363 4.612111
v -2.727547 -0.045657 4.640957
v -2.727547 4.654363 4.640957
v -2.725086 -0.045657 4.669804
v -2.725086 4.654363 4.669804
v -2.717800 -0.045657 4.697541
v -2.717800 4.654363 4.697541
v -2.705966 -0.045657 4.723104
v -2.705966 4.654363 4.723104
v -2.690042 -0.045657 4.745511
v -2.690042 4.654363 4.745511
v -2.670637 -0.045657 4.763899
v -2.670637 4.654363 4.763899
v -2.648499 -0.045657 4.777563
v -2.648499 4.654363 4.777563
v -2.624478 -0.045657 4.785977
v -2.624478 4.654363 4.785977
v -2.599496 -0.045657 4.788818
v -2.599496 4.654363 4.788818
v -2.574515 -0.045657 4.785977
v -2.574515 4.654363 4.785977
v -2.550493 -0.045657 4.777563
v -2.550493 4.654363 4.777563
v -2.528355 -0.045657 4.763899
v -2.528355 4.654363 4.763899
v -2.508950 -0.045657 4.745511
v -2.508950 4.654363 4.745511
v -2.493026 -0.045657 4.723104
v -2.493026 4.654363 4.723104
v -2.481193 -0.045657 4.697541
v -2.481193 4.654363 4.697541
v -2.473906 -0.045657 4.669804
v -2.473906 4.654363 4.669804
v -2.471445 -0.045657 4.640957
v -2.471445 4.654363 4.640957
v -2.473906 -0.045657 4.612111
v -2.473906 4.654363 4.612111
v -2.481193 -0.045657 4.584373
v -2.481193 4.654363 4.584373
v -2.493026 -0.045657 4.558810
v -2.493026 4.654363 4.558810
v -2.508951 -0.045657 4.536404
v -2.508951 4.654363 4.536404
v -2.528355 -0.045657 4.518015
v -2.528355 4.654363 4.518015
v -2.550493 -0.045657 4.504352
v -2.550493 4.654363 4.504352
v -2.574515 -0.045657 4.495937
v -2.574515 4.654363 4.495937
vn 0.1130 0.0000 0.9936
vn 0.3306 0.0000 0.9438
vn 0.5252 0.0000 0.8510
vn 0.6878 0.0000 0.7259
vn 0.8151 0.0000 0.5793
vn 0.9075 0.0000 0.4201
vn 0.9672 0.0000 0.2541
vn 0.9964 0.0000 0.0850
vn 0.9964 0.0000 -0.0850
vn 0.9672 0.0000 -0.2541
vn 0.9075 0.0000 -0.4201
vn 0.8151 0.0000 -0.5793
vn 0.6878 0.0000 -0.7259
vn 0.5252 0.0000 -0.8510
vn 0.3306 0.0000 -0.9438
vn 0.1130 0.0000 -0.9936
vn -0.1130 0.0000 -0.9936
vn -0.3306 0.0000 -0.9438
vn -0.5252 0.0000 -0.8510
vn -0.6878 0.0000 -0.7259
vn -0.8151 0.0000 -0.5793
vn -0.9075 0.0000 -0.4201
vn -0.9672 0.0000 -0.2541
vn -0.9964 0.0000 -0.0850
vn -0.9964 0.0000 0.0850
vn -0.9672 0.0000 0.2541
vn -0.9075 0.0000 0.4201
vn -0.8151 0.0000 0.5793
vn -0.6878 0.0000 0.7259
vn -0.5252 0.0000 0.8510
vn 0.0000 -1.0000 -0.0000
vn -0.3306 0.0000 0.9438
vn -0.1130 0.0000 0.9936
vn 0.0000 1.0000 -0.0000
usemtl Material.001
s off
f 9//7 10//7 12//7 11//7
f 11//8 12//8 14//8 13//8
f 13//9 14//9 16//9 15//9
f 15//10 16//10 18//10 17//10
f 17//11 18//11 20//11 19//11
f 19//12 20//12 22//12 21//12
f 21//13 22//13 24//13 23//13
f 23//14 24//14 26//14 25//14
f 25//15 26//15 28//15 27//15
f 27//16 28//16 30//16 29//16
f 29//17 30//17 32//17 31//17
f 31//18 32//18 34//18 33//18
f 33//19 34//19 36//19 35//19
f 35//20 36//20 38//20 37//20
f 37//21 38//21 40//21 39//21
f 39//22 40//22 42//22 41//22
f 41//23 42//23 44//23 43//23
f 43//24 44//24 46//24 45//24
f 45//25 46//25 48//25 47//25
f 47//26 48//26 50//26 49//26
f 49//27 50//27 52//27 51//27
f 51//28 52//28 54//28 53//28
f 53//29 54//29 56//29 55//29
f 55//30 56//30 58//30 57//30
f 57//31 58//31 60//31 59//31
f 59//32 60//32 62//32 61//32
f 61//33 62//33 64//33 63//33
f 63//34 64//34 66//34 65//34
f 65//35 66//35 68//35 67//35
f 67//36 68//36 70//36 69//36
f 12//37 10//37 72//37 70//37 68//37 66//37 64//37 62//37 60//37 58//37 56//37 54//37 52//37 50//37 48//37 46//37 44//37 42//37 40//37 38//37 36//37 34//37 32//37 30//37 28//37 26//37 24//37 22//37 20//37 18//37 16//37 14//37
f 69//38 70//38 72//38 71//38
f 71//39 72//39 10//39 9//39
f 9//40 11//40 13//40 15//40 17//40 19//40 21//40 23//40 25//40 27//40 29//40 31//40 33//40 35//40 37//40 39//40 41//40 43//40 45//40 47//40 49//40 51//40 53//40 55//40 57//40 59//40 61//40 63//40 65//40 67//40 69//40 71//40
o Cylinder.001
v 8.649128 -0.090140 4.473999
v 8.649128 4.609879 4.473999
v 8.624146 -0.090140 4.476840
v 8.624146 4.609879 4.476840
v 8.600125 -0.090140 4.485254
v 8.600125 4.609879 4.485254
v 8.577987 -0.090140 4.498918
v 8.577987 4.609879 4.498918
v 8.558582 -0.090140 4.517306
v 8.558582 4.609879 4.517306
v 8.542658 -0.090140 4.539713
v 8.542658 4.609879 4.539713
v 8.530825 -0.090140 4.565276
v 8.530825 4.609879 4.565276
v 8.523538 -0.090140 4.593014
v 8.523538 4.609879 4.593014
v 8.521077 -0.090140 4.621860
v 8.521077 4.609879 4.621860
v 8.523538 -0.090140 4.650706
v 8.523538 4.609879 4.650706
v 8.530825 -0.090140 4.678444
v 8.530825 4.609879 4.678444
v 8.542658 -0.090140 4.704007
v 8.542658 4.609879 4.704007
v 8.558582 -0.090140 4.726414
v 8.558582 4.609879 4.726414
v 8.577987 -0.090140 4.744802
v 8.577987 4.609879 4.744802
v 8.600125 -0.090140 4.758466
v 8.600125 4.609879 4.758466
v 8.624146 -0.090140 4.766880
v 8.624146 4.609879 4.766880
v 8.649128 -0.090140 4.769721
v 8.649128 4.609879 4.769721
v 8.674109 -0.090140 4.766880
v 8.674109 4.609879 4.766880
v 8.698131 -0.090140 4.758466
v 8.698131 4.609879 4.758466
v 8.720269 -0.090140 4.744802
v 8.720269 4.609879 4.744802
v 8.739674 -0.090140 4.726414
v 8.739674 4.609879 4.726414
v 8.755598 -0.090140 4.704007
v 8.755598 4.609879 4.704007
v 8.767431 -0.090140 4.678444
v 8.767431 4.609879 4.678444
v 8.774718 -0.090140 4.650706
v 8.774718 4.609879 4.650706
v 8.777179 -0.090140 4.621860
v 8.777179 4.609879 4.621860
v 8.774718 -0.090140 4.593014
v 8.774718 4.609879 4.593014
v 8.767431 -0.090140 4.565276
v 8.767431 4.609879 4.565276
v 8.755598 -0.090140 4.539713
v 8.755598 4.609879 4.539713
v 8.739674 -0.090140 4.517306
v 8.739674 4.609879 4.517306
v 8.720269 -0.090140 4.498918
v 8.720269 4.609879 4.498918
v 8.698131 -0.090140 4.485254
v 8.698131 4.609879 4.485254
v 8.674109 -0.090140 4.476840
v 8.674109 4.609879 4.476840
vn 0.1130 0.0000 0.9936
vn 0.3306 0.0000 0.9438
vn 0.5252 0.0000 0.8510
vn 0.6878 0.0000 0.7259
vn 0.8151 0.0000 0.5793
vn 0.9075 0.0000 0.4201
vn 0.9672 0.0000 0.2541
vn 0.9964 0.0000 0.0850
vn 0.9964 0.0000 -0.0850
vn 0.9672 0.0000 -0.2541
vn 0.9075 0.0000 -0.4201
vn 0.8151 0.0000 -0.5793
vn 0.6878 0.0000 -0.7259
vn 0.5252 0.0000 -0.8510
vn 0.3306 0.0000 -0.9438
vn 0.1130 0.0000 -0.9936
vn -0.1130 0.0000 -0.9936
vn -0.3306 0.0000 -0.9438
vn -0.5252 0.0000 -0.8510
vn -0.6878 0.0000 -0.7259
vn -0.8151 0.0000 -0.5793
vn -0.9075 0.0000 -0.4201
vn -0.9672 0.0000 -0.2541
vn -0.9964 0.0000 -0.0850
vn -0.9964 0.0000 0.0850
vn -0.9672 0.0000 0.2541
vn -0.9075 0.0000 0.4201
vn -0.8151 0.0000 0.5793
vn -0.6878 0.0000 0.7259
vn -0.5252 0.0000 0.8510
vn 0.0000 -1.0000 0.0000
vn -0.3306 0.0000 0.9438
vn -0.1130 0.0000 0.9936
vn 0.0000 1.0000 0.0000
usemtl Material.001
s off
f 73//41 74//41 76//41 75//41
f 75//42 76//42 78//42 77//42
f 77//43 78//43 80//43 79//43
f 79//44 80//44 82//44 81//44
f 81//45 82//45 84//45 83//45
f 83//46 84//46 86//46 85//46
f 85//47 86//47 88//47 87//47
f 87//48 88//48 90//48 89//48
f 89//49 90//49 92//49 91//49
f 91//50 92//50 94//50 93//50
f 93//51 94//51 96//51 95//51
f 95//52 96//52 98//52 97//52
f 97//53 98//53 100//53 99//53
f 99//54 100//54 102//54 101//54
f 101//55 102//55 104//55 103//55
f 103//56 104//56 106//56 105//56
f 105//57 106//57 108//57 107//57
f 107//58 108//58 110//58 109//58
f 109//59 110//59 112//59 111//59
f 111//60 112//60 114//60 113//60
f 113//61 114//61 116//61 115//61
f 115//62 116//62 118//62 117//62
f 117//63 118//63 120//63 119//63
f 119//64 120//64 122//64 121//64
f 121//65 122//65 124//65 123//65
f 123//66 124//66 126//66 125//66
f 125//67 126//67 128//67 127//67
f 127//68 128//68 130//68 129//68
f 129//69 130//69 132//69 131//69
f 131//70 132//70 134//70 133//70
f 76//71 74//71 136//71 134//71 132//71 130//71 128//71 126//71 124//71 122//71 120//71 118//71 116//71 114//71 112//71 110//71 108//71 106//71 104//71 102//71 100//71 98//71 96//71 94//71 92//71 90//71 88//71 86//71 84//71 82//71 80//71 78//71
f 133//72 134//72 136//72 135//72
f 135//73 136//73 74//73 73//73
f 73//74 75//74 77//74 79//74 81//74 83//74 85//74 87//74 89//74 91//74 93//74 95//74 97//74 99//74 101//74 103//74 105//74 107//74 109//74 111//74 113//74 115//74 117//74 119//74 121//74 123//74 125//74 127//74 129//74 131//74 133//74 135//74
o Cube.002_Cube.003
v 8.359606 -0.049365 4.849671
v 8.359606 4.601996 4.849671
v 8.359606 -0.049365 4.601253
v 8.359606 4.601996 4.601253
v 8.926306 -0.049365 4.849671
v 8.926306 4.601996 4.849671
v 8.926306 -0.049365 4.601253
v 8.926306 4.601996 4.601253
vn -1.0000 0.0000 0.0000
vn 0.0000 0.0000 -1.0000
vn 1.0000 0.0000 0.0000
vn 0.0000 0.0000 1.0000
vn 0.0000 -1.0000 0.0000
vn 0.0000 1.0000 0.0000
usemtl Material.002
s off
f 137//75 138//75 140//75 139//75
f 139//76 140//76 144//76 143//76
f 143//77 144//77 142//77 141//77
f 141//78 142//78 138//78 137//78
f 139//79 143//79 141//79 137//79
f 144//80 140//80 138//80 142//80
o Cube.001_Cube.002
v -2.882544 -0.023345 4.878315
v -2.882544 4.628016 4.878315
v -2.882544 -0.023345 4.629898
v -2.882544 4.628016 4.629898
v -2.315843 -0.023345 4.878315
v -2.315843 4.628016 4.878315
v -2.315843 -0.023345 4.629898
v -2.315843 4.628016 4.629898
vn -1.0000 0.0000 0.0000
vn 0.0000 0.0000 -1.0000
vn 1.0000 0.0000 0.0000
vn 0.0000 0.0000 1.0000
vn 0.0000 -1.0000 0.0000
vn 0.0000 1.0000 0.0000
usemtl Material.002
s off
f 145//81 146//81 148//81 147//81
f 147//82 148//82 152//82 151//82
f 151//83 152//83 150//83 149//83
f 149//84 150//84 146//84 145//84
f 147//85 151//85 149//85 145//85
f 152//86 148//86 146//86 150//86
o Cylinder.000
v 8.687556 -0.162873 -1.868659
v 8.687556 4.537147 -1.868659
v 8.662575 -0.162873 -1.865818
v 8.662575 4.537147 -1.865818
v 8.638554 -0.162873 -1.857404
v 8.638554 4.537147 -1.857404
v 8.616415 -0.162873 -1.843740
v 8.616415 4.537147 -1.843740
v 8.597011 -0.162873 -1.825352
v 8.597011 4.537147 -1.825352
v 8.581086 -0.162873 -1.802946
v 8.581086 4.537147 -1.802946
v 8.569253 -0.162873 -1.777382
v 8.569253 4.537147 -1.777382
v 8.561966 -0.162873 -1.749645
v 8.561966 4.537147 -1.749645
v 8.559505 -0.162873 -1.720798
v 8.559505 4.537147 -1.720798
v 8.561966 -0.162873 -1.691952
v 8.561966 4.537147 -1.691952
v 8.569253 -0.162873 -1.664214
v 8.569253 4.537147 -1.664214
v 8.581086 -0.162873 -1.638651
v 8.581086 4.537147 -1.638651
v 8.597011 -0.162873 -1.616245
v 8.597011 4.537147 -1.616245
v 8.616415 -0.162873 -1.597857
v 8.616415 4.537147 -1.597857
v 8.638554 -0.162873 -1.584193
v 8.638554 4.537147 -1.584193
v 8.662575 -0.162873 -1.575779
v 8.662575 4.537147 -1.575779
v 8.687556 -0.162873 -1.572937
v 8.687556 4.537147 -1.572937
v 8.712538 -0.162873 -1.575779
v 8.712538 4.537147 -1.575779
v 8.736559 -0.162873 -1.584193
v 8.736559 4.537147 -1.584193
v 8.758698 -0.162873 -1.597857
v 8.758698 4.537147 -1.597857
v 8.778102 -0.162873 -1.616245
v 8.778102 4.537147 -1.616245
v 8.794026 -0.162873 -1.638651
v 8.794026 4.537147 -1.638651
v 8.805860 -0.162873 -1.664215
v 8.805860 4.537147 -1.664215
v 8.813147 -0.162873 -1.691952
v 8.813147 4.537147 -1.691952
v 8.815607 -0.162873 -1.720799
v 8.815607 4.537147 -1.720799
v 8.813147 -0.162873 -1.749645
v 8.813147 4.537147 -1.749645
v 8.805860 -0.162873 -1.777383
v 8.805860 4.537147 -1.777383
v 8.794026 -0.162873 -1.802946
v 8.794026 4.537147 -1.802946
v 8.778102 -0.162873 -1.825352
v 8.778102 4.537147 -1.825352
v 8.758698 -0.162873 -1.843741
v 8.758698 4.537147 -1.843741
v 8.736559 -0.162873 -1.857404
v 8.736559 4.537147 -1.857404
v 8.712538 -0.162873 -1.865819
v 8.712538 4.537147 -1.865819
vn 0.1130 0.0000 0.9936
vn 0.3306 0.0000 0.9438
vn 0.5252 0.0000 0.8510
vn 0.6878 0.0000 0.7259
vn 0.8151 0.0000 0.5793
vn 0.9075 0.0000 0.4201
vn 0.9672 0.0000 0.2541
vn 0.9964 0.0000 0.0850
vn 0.9964 0.0000 -0.0850
vn 0.9672 0.0000 -0.2541
vn 0.9075 0.0000 -0.4201
vn 0.8151 0.0000 -0.5793
vn 0.6878 0.0000 -0.7259
vn 0.5252 0.0000 -0.8510
vn 0.3306 0.0000 -0.9438
vn 0.1130 0.0000 -0.9936
vn -0.1130 0.0000 -0.9936
vn -0.3306 0.0000 -0.9438
vn -0.5252 0.0000 -0.8510
vn -0.6879 0.0000 -0.7259
vn -0.8151 0.0000 -0.5793
vn -0.9075 0.0000 -0.4201
vn -0.9672 0.0000 -0.2541
vn -0.9964 0.0000 -0.0850
vn -0.9964 0.0000 0.0850
vn -0.9672 0.0000 0.2541
vn -0.9075 0.0000 0.4201
vn -0.8151 0.0000 0.5793
vn -0.6878 0.0000 0.7259
vn -0.5252 0.0000 0.8510
vn 0.0000 -1.0000 -0.0000
vn -0.3306 0.0000 0.9438
vn -0.1130 0.0000 0.9936
vn 0.0000 1.0000 0.0000
usemtl Material.001
s off
f 153//87 154//87 156//87 155//87
f 155//88 156//88 158//88 157//88
f 157//89 158//89 160//89 159//89
f 159//90 160//90 162//90 161//90
f 161//91 162//91 164//91 163//91
f 163//92 164//92 166//92 165//92
f 165//93 166//93 168//93 167//93
f 167//94 168//94 170//94 169//94
f 169//95 170//95 172//95 171//95
f 171//96 172//96 174//96 173//96
f 173//97 174//97 176//97 175//97
f 175//98 176//98 178//98 177//98
f 177//99 178//99 180//99 179//99
f 179//100 180//100 182//100 181//100
f 181//101 182//101 184//101 183//101
f 183//102 184//102 186//102 185//102
f 185//103 186//103 188//103 187//103
f 187//104 188//104 190//104 189//104
f 189//105 190//105 192//105 191//105
f 191//106 192//106 194//106 193//106
f 193//107 194//107 196//107 195//107
f 195//108 196//108 198//108 197//108
f 197//109 198//109 200//109 199//109
f 199//110 200//110 202//110 201//110
f 201//111 202//111 204//111 203//111
f 203//112 204//112 206//112 205//112
f 205//113 206//113 208//113 207//113
f 207//114 208//114 210//114 209//114
f 209//115 210//115 212//115 211//115
f 211//116 212//116 214//116 213//116
f 156//117 154//117 216//117 214//117 212//117 210//117 208//117 206//117 204//117 202//117 200//117 198//117 196//117 194//117 192//117 190//117 188//117 186//117 184//117 182//117 180//117 178//117 176//117 174//117 172//117 170//117 168//117 166//117 164//117 162//117 160//117 158//117
f 213//118 214//118 216//118 215//118
f 215//119 216//119 154//119 153//119
f 153//120 155//120 157//120 159//120 161//120 163//120 165//120 167//120 169//120 171//120 173//120 175//120 177//120 179//120 181//120 183//120 185//120 187//120 189//120 191//120 193//120 195//120 197//120 199//120 201//120 203//120 205//120 207//120 209//120 211//120 213//120 215//120
o Cube.000_Cube.001
v 8.426538 -0.145112 -1.734662
v 8.426538 4.506249 -1.734662
v 8.426538 -0.145112 -1.983080
v 8.426538 4.506249 -1.983080
v 8.993238 -0.145112 -1.734662
v 8.993238 4.506249 -1.734662
v 8.993238 -0.145112 -1.983080
v 8.993238 4.506249 -1.983080
vn -1.0000 0.0000 0.0000
vn 0.0000 0.0000 -1.0000
vn 1.0000 0.0000 0.0000
vn 0.0000 0.0000 1.0000
vn 0.0000 -1.0000 0.0000
vn 0.0000 1.0000 0.0000
usemtl Material.002
s off
f 217//121 218//121 220//121 219//121
f 219//122 220//122 224//122 223//122
f 223//123 224//123 222//123 221//123
f 221//124 222//124 218//124 217//124
f 219//125 223//125 221//125 217//125
f 224//126 220//126 218//126 222//126
o Cube.003_Cube.005
v -2.941611 -0.042543 -1.725731
v -2.941611 4.608818 -1.725731
v -2.941611 -0.042543 -1.974149
v -2.941611 4.608818 -1.974149
v -2.374910 -0.042543 -1.725731
v -2.374910 4.608818 -1.725731
v -2.374910 -0.042543 -1.974149
v -2.374910 4.608818 -1.974149
vn -1.0000 0.0000 0.0000
vn 0.0000 0.0000 -1.0000
vn 1.0000 0.0000 0.0000
vn 0.0000 0.0000 1.0000
vn 0.0000 -1.0000 0.0000
vn 0.0000 1.0000 0.0000
usemtl Material.002
s off
f 225//127 226//127 228//127 227//127
f 227//128 228//128 232//128 231//128
f 231//129 232//129 230//129 229//129
f 229//130 230//130 226//130 225//130
f 227//131 231//131 229//131 225//131
f 232//132 228//132 226//132 230//132
o Cylinder.013_Cylinder.015
v -2.658449 -0.078515 -1.875994
v -2.658449 4.621505 -1.875994
v -2.683431 -0.078515 -1.873153
v -2.683431 4.621505 -1.873153
v -2.707452 -0.078515 -1.864739
v -2.707452 4.621505 -1.864739
v -2.729591 -0.078515 -1.851075
v -2.729591 4.621505 -1.851075
v -2.748995 -0.078515 -1.832687
v -2.748995 4.621505 -1.832687
v -2.764920 -0.078515 -1.810280
v -2.764920 4.621505 -1.810280
v -2.776753 -0.078515 -1.784717
v -2.776753 4.621505 -1.784717
v -2.784040 -0.078515 -1.756979
v -2.784040 4.621505 -1.756979
v -2.786500 -0.078515 -1.728133
v -2.786500 4.621505 -1.728133
v -2.784040 -0.078515 -1.699287
v -2.784040 4.621505 -1.699287
v -2.776753 -0.078515 -1.671549
v -2.776753 4.621505 -1.671549
v -2.764920 -0.078515 -1.645986
v -2.764920 4.621505 -1.645986
v -2.748995 -0.078515 -1.623580
v -2.748995 4.621505 -1.623580
v -2.729591 -0.078515 -1.605191
v -2.729591 4.621505 -1.605191
v -2.707452 -0.078515 -1.591527
v -2.707452 4.621505 -1.591527
v -2.683431 -0.078515 -1.583113
v -2.683431 4.621505 -1.583113
v -2.658449 -0.078515 -1.580272
v -2.658449 4.621505 -1.580272
v -2.633468 -0.078515 -1.583113
v -2.633468 4.621505 -1.583113
v -2.609447 -0.078515 -1.591527
v -2.609447 4.621505 -1.591527
v -2.587308 -0.078515 -1.605191
v -2.587308 4.621505 -1.605191
v -2.567904 -0.078515 -1.623580
v -2.567904 4.621505 -1.623580
v -2.551979 -0.078515 -1.645986
v -2.551979 4.621505 -1.645986
v -2.540146 -0.078515 -1.671549
v -2.540146 4.621505 -1.671549
v -2.532859 -0.078515 -1.699287
v -2.532859 4.621505 -1.699287
v -2.530399 -0.078515 -1.728133
v -2.530399 4.621505 -1.728133
v -2.532859 -0.078515 -1.756980
v -2.532859 4.621505 -1.756980
v -2.540146 -0.078515 -1.784717
v -2.540146 4.621505 -1.784717
v -2.551979 -0.078515 -1.810281
v -2.551979 4.621505 -1.810281
v -2.567904 -0.078515 -1.832687
v -2.567904 4.621505 -1.832687
v -2.587308 -0.078515 -1.851075
v -2.587308 4.621505 -1.851075
v -2.609447 -0.078515 -1.864739
v -2.609447 4.621505 -1.864739
v -2.633468 -0.078515 -1.873153
v -2.633468 4.621505 -1.873153
vn 0.1130 0.0000 0.9936
vn 0.3306 0.0000 0.9438
vn 0.5252 0.0000 0.8510
vn 0.6878 0.0000 0.7259
vn 0.8151 0.0000 0.5793
vn 0.9075 0.0000 0.4201
vn 0.9672 0.0000 0.2541
vn 0.9964 0.0000 0.0850
vn 0.9964 0.0000 -0.0850
vn 0.9672 0.0000 -0.2541
vn 0.9075 0.0000 -0.4201
vn 0.8151 0.0000 -0.5793
vn 0.6878 0.0000 -0.7259
vn 0.5252 0.0000 -0.8510
vn 0.3306 0.0000 -0.9438
vn 0.1130 0.0000 -0.9936
vn -0.1130 0.0000 -0.9936
vn -0.3306 0.0000 -0.9438
vn -0.5252 0.0000 -0.8510
vn -0.6879 0.0000 -0.7259
vn -0.8151 0.0000 -0.5793
vn -0.9075 0.0000 -0.4201
vn -0.9672 0.0000 -0.2541
vn -0.9964 0.0000 -0.0850
vn -0.9964 0.0000 0.0850
vn -0.9672 0.0000 0.2541
vn -0.9075 0.0000 0.4201
vn -0.8151 0.0000 0.5793
vn -0.6878 0.0000 0.7259
vn -0.5252 0.0000 0.8510
vn 0.0000 -1.0000 0.0000
vn -0.3306 0.0000 0.9438
vn -0.1130 0.0000 0.9936
vn 0.0000 1.0000 -0.0000
usemtl Material.001
s off
f 233//133 234//133 236//133 235//133
f 235//134 236//134 238//134 237//134
f 237//135 238//135 240//135 239//135
f 239//136 240//136 242//136 241//136
f 241//137 242//137 244//137 243//137
f 243//138 244//138 246//138 245//138
f 245//139 246//139 248//139 247//139
f 247//140 248//140 250//140 249//140
f 249//141 250//141 252//141 251//141
f 251//142 252//142 254//142 253//142
f 253//143 254//143 256//143 255//143
f 255//144 256//144 258//144 257//144
f 257//145 258//145 260//145 259//145
f 259//146 260//146 262//146 261//146
f 261//147 262//147 264//147 263//147
f 263//148 264//148 266//148 265//148
f 265//149 266//149 268//149 267//149
f 267//150 268//150 270//150 269//150
f 269//151 270//151 272//151 271//151
f 271//152 272//152 274//152 273//152
f 273//153 274//153 276//153 275//153
f 275//154 276//154 278//154 277//154
f 277//155 278//155 280//155 279//155
f 279//156 280//156 282//156 281//156
f 281//157 282//157 284//157 283//157
f 283//158 284//158 286//158 285//158
f 285//159 286//159 288//159 287//159
f 287//160 288//160 290//160 289//160
f 289//161 290//161 292//161 291//161
f 291//162 292//162 294//162 293//162
f 236//163 234//163 296//163 294//163 292//163 290//163 288//163 286//163 284//163 282//163 280//163 278//163 276//163 274//163 272//163 270//163 268//163 266//163 264//163 262//163 260//163 258//163 256//163 254//163 252//163 250//163 248//163 246//163 244//163 242//163 240//163 238//163
f 293//164 294//164 296//164 295//164
f 295//165 296//165 234//165 233//165
f 233//166 235//166 237//166 239//166 241//166 243//166 245//166 247//166 249//166 251//166 253//166 255//166 257//166 259//166 261//166 263//166 265//166 267//166 269//166 271//166 273//166 275//166 277//166 279//166 281//166 283//166 285//166 287//166 289//166 291//166 293//166 295//166
